<svg id="visual" viewBox="0 0 1920 1080" width="1920" height="1080" xmlns="http://www.w3.org/2000/svg" xmlns:xlink="http://www.w3.org/1999/xlink" version="1.1"><path d="M0 401L240 401L240 206L480 206L480 260L720 260L720 163L960 163L960 293L1200 293L1200 347L1440 347L1440 249L1680 249L1680 390L1920 390L1920 465L1920 0L1920 0L1680 0L1680 0L1440 0L1440 0L1200 0L1200 0L960 0L960 0L720 0L720 0L480 0L480 0L240 0L240 0L0 0Z" fill="#2d727e"></path><path d="M0 714L240 714L240 509L480 509L480 714L720 714L720 563L960 563L960 563L1200 563L1200 552L1440 552L1440 638L1680 638L1680 617L1920 617L1920 681L1920 463L1920 388L1680 388L1680 247L1440 247L1440 345L1200 345L1200 291L960 291L960 161L720 161L720 258L480 258L480 204L240 204L240 399L0 399Z" fill="#2b8292"></path><path d="M0 865L240 865L240 735L480 735L480 843L720 843L720 768L960 768L960 843L1200 843L1200 735L1440 735L1440 800L1680 800L1680 876L1920 876L1920 876L1920 679L1920 615L1680 615L1680 636L1440 636L1440 550L1200 550L1200 561L960 561L960 561L720 561L720 712L480 712L480 507L240 507L240 712L0 712Z" fill="#2793a7"></path><path d="M0 984L240 984L240 941L480 941L480 995L720 995L720 984L960 984L960 941L1200 941L1200 941L1440 941L1440 919L1680 919L1680 1005L1920 1005L1920 973L1920 874L1920 874L1680 874L1680 798L1440 798L1440 733L1200 733L1200 841L960 841L960 766L720 766L720 841L480 841L480 733L240 733L240 863L0 863Z" fill="#20a4bd"></path><path d="M0 1081L240 1081L240 1081L480 1081L480 1081L720 1081L720 1081L960 1081L960 1081L1200 1081L1200 1081L1440 1081L1440 1081L1680 1081L1680 1081L1920 1081L1920 1081L1920 971L1920 1003L1680 1003L1680 917L1440 917L1440 939L1200 939L1200 939L960 939L960 982L720 982L720 993L480 993L480 939L240 939L240 982L0 982Z" fill="#13b6d4"></path></svg>