<svg xmlns="http://www.w3.org/2000/svg" xmlns:xlink="http://www.w3.org/1999/xlink" width="128" zoomAndPan="magnify" viewBox="0 0 96 95.999999" height="128" preserveAspectRatio="xMidYMid meet" version="1.0"><defs><clipPath id="eb0217970d"><path d="M 0 0 L 95.9375 0 L 95.9375 95.9375 L 0 95.9375 Z M 0 0 " clip-rule="nonzero"/></clipPath></defs><g clip-path="url(#eb0217970d)"><path fill="#545454" d="M 47.984375 -0.078125 C 74.511719 -0.078125 96.011719 21.425781 96.011719 47.949219 C 96.011719 68.195312 83.488281 85.511719 65.761719 92.582031 L 65.058594 77.445312 L 65.058594 77.417969 C 65.097656 74.425781 66.363281 72.066406 69.167969 70.878906 L 69.527344 70.734375 L 69.546875 70.730469 L 69.566406 70.71875 L 69.601562 70.707031 C 71.667969 69.871094 73.351562 68.746094 74.496094 66.796875 C 75.925781 64.367188 76.203125 61.132812 76.203125 58.378906 C 76.203125 53.085938 74.644531 46.839844 71.953125 42.261719 C 70.042969 39.011719 67.03125 35.722656 62.960938 35.722656 C 58.894531 35.722656 55.882812 39.011719 53.972656 42.261719 C 51.28125 46.839844 49.722656 53.085938 49.722656 58.378906 C 49.722656 61.136719 50 64.371094 51.429688 66.796875 C 52.589844 68.757812 54.289062 69.886719 56.363281 70.722656 C 56.421875 70.746094 56.480469 70.769531 56.539062 70.792969 L 56.554688 70.792969 L 56.734375 70.871094 C 59.546875 72.054688 60.828125 74.386719 60.867188 77.417969 L 60.867188 77.445312 L 60.078125 94.445312 C 56.210938 95.449219 52.160156 95.984375 47.984375 95.984375 C 43.65625 95.984375 39.46875 95.40625 35.480469 94.335938 L 34.742188 78.421875 L 34.742188 78.386719 C 34.78125 75.316406 36.089844 72.898438 38.960938 71.683594 L 39.328125 71.539062 L 39.34375 71.535156 L 39.355469 71.53125 L 39.398438 71.515625 C 41.421875 70.695312 43.074219 69.589844 44.199219 67.675781 C 45.613281 65.28125 45.882812 62.070312 45.882812 59.351562 C 45.882812 59.085938 45.875 58.824219 45.855469 58.558594 C 45.847656 58.410156 45.835938 58.257812 45.816406 58.109375 L 45.789062 57.886719 L 45.832031 57.738281 L 44.085938 37.421875 L 42.257812 37.425781 L 42.101562 58.894531 L 39.058594 59.195312 L 37.25 34.929688 L 35.269531 35.046875 L 34.878906 59.496094 L 33.800781 59.539062 C 33.574219 59.550781 33.351562 59.554688 33.128906 59.554688 C 32.902344 59.554688 32.675781 59.550781 32.449219 59.539062 L 31.378906 59.496094 L 30.828125 35.046875 L 28.847656 34.933594 L 27.199219 59.199219 L 24.152344 58.898438 L 24 37.425781 L 22.164062 37.425781 L 19.800781 57.746094 L 19.839844 57.890625 L 19.816406 58.105469 C 19.800781 58.257812 19.785156 58.410156 19.777344 58.558594 C 19.761719 58.824219 19.75 59.085938 19.75 59.351562 C 19.75 62.070312 20.019531 65.28125 21.433594 67.675781 C 22.566406 69.605469 24.238281 70.710938 26.277344 71.53125 C 26.328125 71.550781 26.375 71.570312 26.421875 71.585938 L 26.4375 71.585938 L 26.648438 71.679688 C 29.527344 72.890625 30.847656 75.28125 30.890625 78.386719 L 30.890625 78.421875 L 30.234375 92.605469 C 12.484375 85.546875 -0.0585938 68.21875 -0.0585938 47.953125 C -0.046875 21.421875 21.457031 -0.078125 47.984375 -0.078125 " fill-opacity="1" fill-rule="evenodd"/></g></svg>